<svg xmlns="http://www.w3.org/2000/svg" width="1024" height="1024" viewBox="0 0 1024 1024">
  <defs>
    <linearGradient id="background" x1="0" y1="0" x2="1" y2="1">
      <stop offset="0" stop-color="#635BFF"/>
      <stop offset="1" stop-color="#213063"/>
    </linearGradient>
    <linearGradient id="box" x1="0" y1="0" x2="0" y2="1">
      <stop offset="0" stop-color="#FFFFFF" stop-opacity="0.98"/>
      <stop offset="1" stop-color="#DDE4FF" stop-opacity="0.9"/>
    </linearGradient>
    <filter id="shadow" x="-30%" y="-30%" width="160%" height="160%">
      <feDropShadow dx="0" dy="28" stdDeviation="26" flood-color="#111735" flood-opacity="0.42"/>
    </filter>
  </defs>
  <rect x="42" y="42" width="940" height="940" rx="220" fill="url(#background)"/>
  <circle cx="190" cy="170" r="190" fill="#FFFFFF" opacity="0.08"/>
  <g filter="url(#shadow)">
    <path d="M220 365c0-38 31-69 69-69h446c38 0 69 31 69 69v89H220z" fill="#C8D2FF"/>
    <path d="M178 450h668l-54 343c-7 45-46 78-92 78H324c-46 0-85-33-92-78z" fill="url(#box)"/>
    <rect x="160" y="413" width="704" height="91" rx="45" fill="#F8FAFF"/>
  </g>
  <g stroke="#4B55A8" stroke-width="26" stroke-linecap="round">
    <line x1="365" y1="585" x2="365" y2="760"/>
    <line x1="512" y1="585" x2="512" y2="760"/>
    <line x1="659" y1="585" x2="659" y2="760"/>
  </g>
  <g fill="#635BFF" stroke="#FFFFFF" stroke-width="16">
    <circle cx="365" cy="638" r="37"/>
    <circle cx="512" cy="704" r="37"/>
    <circle cx="659" cy="622" r="37"/>
  </g>
</svg>
